HIERARCHY
ROOT simHips
{
  OFFSET -194.108 84.0345 -23.8287
  CHANNELS 6 Xposition Yposition Zposition Zrotation Xrotation Yrotation
  JOINT simSpine
  {
    OFFSET -0.000355721 21.3001 -0.016921
    CHANNELS 3 Zrotation Xrotation Yrotation
    JOINT simLeftArm
    {
      OFFSET 13.5181 21.3012 0
      CHANNELS 3 Zrotation Xrotation Yrotation
      JOINT simLeftForeArm
      {
        OFFSET 24.5783 0 0
        CHANNELS 3 Zrotation Xrotation Yrotation
        JOINT simLeftHand
        {
          OFFSET 24.5783 0 0
          CHANNELS 3 Zrotation Xrotation Yrotation
          End Site
          {
            OFFSET 7.32568 1.52588e-05 0.0169305
          }
        }
      }
    }
    JOINT simHead
    {
      OFFSET 0 27.4458 -0.00489235
      CHANNELS 3 Zrotation Xrotation Yrotation
      End Site
      {
        OFFSET 0 0 0
      }
    }
    JOINT simRightArm
    {
      OFFSET -13.5174 21.3012 0
      CHANNELS 3 Zrotation Xrotation Yrotation
      JOINT simRightForeArm
      {
        OFFSET -24.5783 0 0
        CHANNELS 3 Zrotation Xrotation Yrotation
        JOINT simRightHand
        {
          OFFSET -24.5783 0 0
          CHANNELS 3 Zrotation Xrotation Yrotation
          End Site
          {
            OFFSET -7.32568 1.52588e-05 0.0169305
          }
        }
      }
    }
  }
  JOINT simRightUpLeg
  {
    OFFSET -8.44614 -9.41038 0.835684
    CHANNELS 3 Zrotation Xrotation Yrotation
    JOINT simRightLeg
    {
      OFFSET 0 -40.9639 0
      CHANNELS 3 Zrotation Xrotation Yrotation
      JOINT simRightFoot
      {
        OFFSET 0 -40.9639 0
        CHANNELS 3 Zrotation Xrotation Yrotation
        End Site
        {
          OFFSET 0.50614 -9.67405 14.6709
        }
      }
    }
  }
  JOINT simLeftUpLeg
  {
    OFFSET 8.44614 -9.41038 0.835684
    CHANNELS 3 Zrotation Xrotation Yrotation
    JOINT simLeftLeg
    {
      OFFSET 0 -40.9639 0
      CHANNELS 3 Zrotation Xrotation Yrotation
      JOINT simLeftFoot
      {
        OFFSET 0 -40.9639 0
        CHANNELS 3 Zrotation Xrotation Yrotation
        End Site
        {
          OFFSET -0.50614 -9.67405 14.6709
        }
      }
    }
  }
}
MOTION
Frames:	17
Frame Time:	0.0333333
-27.2861 99.1494 306.986 -0.00447244 6.14525e-05 8.32837e-25 6.05308e-09 -0.000765203 0.000302109 -6.83019e-06 -1.70755e-06 -1.53679e-05 12.4773 -0.00269312 -0.000108159 3.17268e-06 -0.000865644 -0.00764685 -7.01882e-19 9.70628e-20 -0 9.48396 -6.32055e-06 -0.000169104 -22.2989 -6.66728e-05 0.000165783 7.63598e-06 1.66709e-05 -5.7785e-06 -1.98892 -4.67612 0.316652 5.43704 18.0887 12.8483 0.27347 -7.15471 -25.4212 -1.61765 -3.37839 0.371155 5.35128 16.2463 12.9228 0.0962096 -6.54485 0.198942 
-27.2859 99.1494 306.991 -0.00447244 6.14525e-05 0.00405372 6.05308e-09 -0.000765203 0.000302109 -0.00332986 -0.00284803 -0.00562218 12.4773 -0.00269312 -0.000108159 -0.00720711 -0.000865644 -0.00764685 0.00668694 0.00118753 -0.012892 9.48396 0.000324406 0.00723624 -22.3043 -0.00298057 0.00247144 0.0103981 0.00540982 0.00664337 -1.98899 -4.66396 0.316647 5.43704 18.0887 12.8483 0.274107 -7.15736 -25.4214 -1.6176 -3.38675 0.371158 5.35056 16.2545 12.9191 0.0960045 -6.54682 0.197083 
-27.285 99.1493 307.017 -0.00447552 0.00799758 0.0221198 6.05308e-09 -0.000765203 0.000302109 -0.0135142 -0.0117586 -0.0396353 12.4773 -0.00269312 -0.00553723 -0.0495441 -0.000865644 -0.00764685 0.0441706 -0.0271678 -0.0923501 9.47996 0.0144259 0.0465856 -22.3301 -0.0188958 0.0176422 0.0543796 0.0301815 0.0340065 -1.98906 -4.65081 0.316641 5.43704 18.0887 12.8483 0.278681 -7.17458 -25.4224 -1.61773 -3.36608 0.37115 5.35843 16.2329 12.9084 0.0886367 -6.5581 0.189807 
-27.2844 99.1492 307.041 -0.00448194 0.0163672 0.0332773 6.05308e-09 -0.000765203 0.000302109 -0.0186252 -0.0231753 -0.0810132 12.4773 -0.00269312 -0.0116523 -0.0904579 0.00690248 0.00309621 0.087162 -0.0942561 -0.158056 9.47402 0.0502804 0.0719273 -22.3377 -0.0269151 0.0340894 0.0693042 0.014226 0.0120491 -1.9891 -4.64382 0.316638 5.43704 18.0887 12.8483 0.285147 -7.19247 -25.4235 -1.61782 -3.35332 0.371145 5.3622 16.2264 12.9004 0.0783135 -6.57631 0.185079 
-27.2794 99.149 307.066 -0.0111205 0.0264159 0.0338598 0.00407425 -0.000765203 0.000302109 -0.00870005 -0.0271366 -0.108562 12.4743 -0.00269312 -0.017256 -0.13198 0.0326207 -0.00767031 0.152036 -0.170835 -0.174703 9.46936 0.0933099 0.092716 -22.3296 -0.0284863 0.0528426 0.0712112 0.00210038 -0.0177895 -1.98911 -4.64269 0.316637 5.4361 18.0926 12.8486 0.30125 -7.20348 -25.4241 -1.61787 -3.34536 0.371142 5.36152 16.2291 12.9007 0.0678205 -6.59856 0.186792 
-27.2719 99.1486 307.095 -0.0182793 0.0436652 0.0224868 0.00915235 -0.000765203 0.000302109 0.0249088 0.0132198 -0.110273 12.4666 -0.00269312 -0.0241886 -0.158125 0.0437904 -0.0458846 0.211545 -0.245116 -0.159298 9.4672 0.148151 0.099538 -22.3282 -0.0343763 0.0763618 0.0765965 0.0384451 -0.00519271 -1.98856 -4.63374 0.323981 5.43612 18.0771 12.8474 0.322609 -7.21705 -25.4249 -1.61786 -3.34615 0.371142 5.35882 16.2315 12.9081 0.0611085 -6.61634 0.194219 
-27.2628 99.148 307.13 -0.0227758 0.0728888 0.00622825 0.0137695 -0.000765203 0.000302109 0.0802483 0.091147 -0.0905374 12.4535 -0.00269312 -0.0374347 -0.157972 0.0390565 -0.0643322 0.233859 -0.325583 -0.150182 9.45699 0.243501 0.0727479 -22.3476 -0.0502285 0.101703 0.0857712 0.108596 0.0313207 -1.98733 -4.62673 0.339714 5.436 18.049 12.8454 0.33377 -7.22364 -25.4258 -1.61794 -3.33437 0.371138 5.36143 16.2012 12.9219 0.0549076 -6.62533 0.204291 
-27.2542 99.1472 307.168 -0.0239281 0.109298 -0.000232545 0.0173691 -0.000765203 0.000302109 0.143852 0.169062 -0.0701194 12.4539 -0.0059612 -0.0496501 -0.163452 0.039399 -0.0479306 0.239111 -0.387852 -0.169718 9.42454 0.370003 -0.00885149 -22.3799 -0.0719512 0.12767 0.0922334 0.141567 0.0437262 -1.98615 -4.64059 0.353323 5.43416 18.0393 12.8428 0.342327 -7.23118 -25.4267 -1.62472 -3.33935 0.366739 5.36379 16.1796 12.9301 0.0423848 -6.63416 0.210855 
-27.2457 99.1466 307.207 -0.0235212 0.148952 0.0106617 0.0213038 -0.000765203 0.000302109 0.206381 0.210134 -0.0631097 12.4756 -0.0158922 -0.0605455 -0.191731 0.0665168 -0.0254878 0.276816 -0.38539 -0.201267 9.37725 0.448014 -0.122984 -22.4064 -0.0870412 0.138816 0.0951179 0.153262 0.02718 -1.9864 -4.65226 0.349303 5.43329 18.0337 12.8386 0.346913 -7.24548 -25.4287 -1.6307 -3.36274 0.358238 5.36369 16.1761 12.9299 0.0347547 -6.64517 0.212535 
-27.2363 99.1461 307.249 -0.0220492 0.189237 0.0380174 0.0244072 -0.000765203 0.000302109 0.265899 0.2199 -0.0671741 12.5023 -0.029883 -0.0809455 -0.1967 0.0897841 -0.0211047 0.341682 -0.297997 -0.224422 9.32995 0.431065 -0.227768 -22.4096 -0.0863016 0.13102 0.0963731 0.158015 0.00522819 -1.99278 -4.66708 0.330344 5.43231 18.0339 12.8325 0.351606 -7.26177 -25.4323 -1.63775 -3.37393 0.338949 5.35736 16.1578 12.9327 0.0461788 -6.64959 0.212039 
-27.224 99.1454 307.297 -0.018543 0.228936 0.0764363 0.0260542 -0.000765203 0.000302109 0.321556 0.238764 -0.0767315 12.5222 -0.0440602 -0.110873 -0.156849 0.0727147 -0.0183105 0.382485 -0.151585 -0.248923 9.28776 0.391375 -0.313262 -22.3913 -0.0727832 0.112207 0.0969857 0.146703 0.00728926 -2.00218 -4.66759 0.317569 5.42865 18.0184 12.8181 0.360985 -7.27821 -25.4432 -1.65288 -3.36887 0.310412 5.35077 16.1158 12.9385 0.0995307 -6.63404 0.210999 
-27.2091 99.1483 307.351 -0.00991553 0.266044 0.108019 0.0272429 -0.000765203 0.000302109 0.366553 0.276583 -0.0844613 12.5367 -0.0539957 -0.130946 -0.122387 0.0308154 -0.0160294 0.37845 -0.00278494 -0.289746 9.24847 0.402245 -0.384258 -22.3781 -0.0649485 0.105237 0.0967982 0.109282 0.0107207 -2.01669 -4.66878 0.315472 5.42138 18.0063 12.8015 0.377082 -7.29676 -25.4562 -1.67873 -3.35438 0.289404 5.35255 16.0667 12.9418 0.143014 -6.61829 0.21106 
-27.1938 99.1505 307.405 -0.000256127 0.298538 0.112732 0.0280361 -0.000765203 0.000302109 0.406122 0.31247 -0.0799628 12.5366 -0.0544912 -0.132957 -0.1376 0.0128571 -0.0151787 0.365297 0.126713 -0.327767 9.21788 0.450648 -0.437043 -22.3825 -0.0711283 0.120422 0.0797992 0.0624912 0.00590299 -2.03345 -4.66301 0.309949 5.4098 17.9974 12.8036 0.397462 -7.31822 -25.4574 -1.70663 -3.32848 0.293907 5.36027 16.0168 12.9462 0.171669 -6.60871 0.213331 
-27.1803 99.1529 307.459 0.00526259 0.328571 0.0929322 0.0284962 -0.000765203 0.000302109 0.444259 0.324849 -0.0673371 12.5192 -0.0470698 -0.13037 -0.184533 0.0261317 -0.0166752 0.37621 0.245271 -0.326015 9.19054 0.493071 -0.474082 -22.3928 -0.081645 0.141321 0.0704136 0.0667312 0.0268484 -2.04625 -4.65861 0.290933 5.39333 17.9887 12.8295 0.421587 -7.3354 -25.4439 -1.72692 -3.30021 0.304847 5.3635 15.973 12.9617 0.193104 -6.60212 0.22243 
-27.1689 99.1566 307.513 0.00821121 0.36042 0.0582257 0.028686 -0.000765203 0.000302109 0.481124 0.296059 -0.0512389 12.4888 -0.0368481 -0.126121 -0.222534 0.0425138 -0.0237342 0.414978 0.345469 -0.284336 9.1491 0.541706 -0.505922 -22.3945 -0.0829908 0.143287 0.0742959 0.113574 0.0750295 -2.05459 -4.64555 0.278899 5.37548 17.9619 12.8623 0.44961 -7.34575 -25.4277 -1.73902 -3.28647 0.32084 5.3598 15.9442 12.9831 0.210433 -6.59245 0.234188 
-27.1587 99.1626 307.566 0.0210108 0.392843 0.0325833 0.0286678 -0.000765203 0.000302109 0.506789 0.269458 -0.0507274 12.4752 -0.0312047 -0.121486 -0.247926 0.0382526 -0.0390612 0.460377 0.393742 -0.239336 9.08435 0.608382 -0.550831 -22.39 -0.0778127 0.132024 0.0692028 0.152592 0.0898024 -2.07261 -4.65022 0.282885 5.36293 17.9401 12.8783 0.48031 -7.35606 -25.4208 -1.76026 -3.25825 0.323002 5.3521 15.9013 13.009 0.225084 -6.56711 0.245325 
-27.1474 99.1664 307.621 0.03283 0.428402 0.0300157 0.0285045 -0.000765203 0.000302109 0.537628 0.314762 -0.0682121 12.4931 -0.0347984 -0.11245 -0.253171 0.0523761 -0.0609717 0.498665 0.393549 -0.224585 9.01863 0.668984 -0.612651 -22.393 -0.0795683 0.133741 0.0566117 0.157658 0.0474305 -2.09206 -4.63992 0.287009 5.35555 17.9116 12.882 0.508411 -7.3767 -25.4202 -1.78097 -3.25209 0.317064 5.3461 15.8709 13.0232 0.239535 -6.55479 0.251038 
